<?xml version="1.0" standalone="no"?><!DOCTYPE svg PUBLIC "-//W3C//DTD SVG 1.1//EN" "http://www.w3.org/Graphics/SVG/1.1/DTD/svg11.dtd"><svg t="1743082108461" class="icon" viewBox="0 0 1024 1024" version="1.1" xmlns="http://www.w3.org/2000/svg" p-id="2851" xmlns:xlink="http://www.w3.org/1999/xlink" width="256" height="256"><path d="M687.37219 130.56a30.47619 30.47619 0 0 1 32.646096 24.478476l0.438857 3.096381 14.506667 157.842286c0.731429 7.94819-1.706667 15.823238-6.656 21.942857l-2.267429 2.535619L254.147048 806.741333a30.47619 30.47619 0 0 1-50.858667-29.574095l0.219429-0.682667-2.852572 0.487619a30.305524 30.305524 0 0 1-15.555048-2.462476l-2.950095-1.511619a30.47619 30.47619 0 0 1-12.507428-38.716952l1.511619-2.974476L504.05181 159.939048a30.47619 30.47619 0 0 1 20.382476-14.531048l3.218285-0.487619 159.719619-14.336z m-24.84419 63.414857l-113.737143 10.215619L238.884571 736.134095 672.938667 307.2l-10.410667-113.225143z" fill="#0b51d9" p-id="2852"></path><path d="M478.354286 17.505524a30.47619 30.47619 0 0 1 43.763809 15.555047l0.950857 2.974477 35.449905 132.754285a30.47619 30.47619 0 0 1-57.929143 18.67581l-0.975238-2.950095-25.185524-94.329905-85.699047 49.615238-176.542476 580.608 130.803809 141.482667a30.47619 30.47619 0 0 1 0.633905 40.71619l-2.316191 2.364952a30.47619 30.47619 0 0 1-40.691809 0.633905l-2.389333-2.31619-142.628572-154.331429a30.47619 30.47619 0 0 1-7.606857-26.063238l0.828952-3.462095 185.07581-608.841143c1.950476-6.339048 5.851429-11.824762 11.142095-15.701333l2.755048-1.804191 130.56-75.580952z" fill="#0b51d9" p-id="2853"></path><path d="M711.143619 286.622476l152.380952 14.506667a30.47619 30.47619 0 0 1 27.599239 29.866667l-0.121905 3.09638-13.824 159.695239a30.47619 30.47619 0 0 1-11.946667 21.674666l-2.681905 1.804191L310.759619 850.16381a30.47619 30.47619 0 0 1-34.255238-50.322286l2.755048-1.852953 538.502095-324.900571 9.898666-114.151619-122.294857-11.654095a30.47619 30.47619 0 0 1-27.599238-30.110476l0.146286-3.096381a30.47619 30.47619 0 0 1 30.110476-27.599239l3.120762 0.146286z" fill="#0b51d9" p-id="2854"></path><path d="M821.199238 483.693714a30.47619 30.47619 0 0 1 34.962286-21.113904l3.023238 0.731428 127.292952 38.4a30.47619 30.47619 0 0 1 19.675429 40.057905l-1.365333 3.023238-72.460191 141.385143a30.47619 30.47619 0 0 1-14.116571 13.653333l-3.120762 1.26781-576.707048 198.046476-60.367238 63.049143a30.47619 30.47619 0 0 1-40.569905 3.096381l-2.535619-2.194286a30.47619 30.47619 0 0 1-3.096381-40.545524l2.194286-2.535619 65.487238-68.388571a30.47619 30.47619 0 0 1 8.752762-6.339048l3.364571-1.389714 572.074667-196.461715 50.176-97.938285-92.281905-27.818667a30.47619 30.47619 0 0 1-21.138285-34.962286l0.755809-3.023238z" fill="#0b51d9" p-id="2855"></path><path d="M299.105524 928.060952l-186.075429-186.075428-40.496762 40.472381c-52.931048 52.931048-56.758857 137.045333-6.582857 187.245714l5.412572 5.412571c50.224762 50.200381 134.290286 46.34819 187.245714-6.582857l40.496762-40.472381z m-186.026667-99.84l99.718095 99.718096 2.706286-2.535619c-29.988571 29.988571-75.580952 32.085333-101.034667 6.607238l-5.412571-5.412572c-24.454095-24.454095-23.527619-67.462095 3.120762-97.401905l0.902095-0.975238zM277.552762 451.437714l312.07619 312.076191-43.105523 43.105524-312.076191-312.076191z" fill="#0b51d9" p-id="2856"></path></svg>