<svg width="1213" height="383" xmlns="http://www.w3.org/2000/svg" xmlns:xlink="http://www.w3.org/1999/xlink" xml:space="preserve" overflow="hidden"><defs><clipPath id="clip0"><rect x="50" y="308" width="113" height="112"/></clipPath><clipPath id="clip1"><rect x="50" y="308" width="113" height="112"/></clipPath><clipPath id="clip2"><rect x="50" y="308" width="113" height="112"/></clipPath><clipPath id="clip3"><rect x="1110" y="233" width="112" height="113"/></clipPath><clipPath id="clip4"><rect x="1110" y="233" width="112" height="113"/></clipPath><clipPath id="clip5"><rect x="1110" y="233" width="112" height="113"/></clipPath><clipPath id="clip6"><path d="M376.276 364.147 436.856 308.549 395.15 263.105 334.569 318.704Z" fill-rule="evenodd" clip-rule="evenodd"/></clipPath><clipPath id="clip7"><path d="M376.276 364.147 436.856 308.549 395.15 263.105 334.569 318.704Z" fill-rule="evenodd" clip-rule="evenodd"/></clipPath><clipPath id="clip8"><path d="M376.276 364.147 436.856 308.549 395.15 263.105 334.569 318.704Z" fill-rule="evenodd" clip-rule="evenodd"/></clipPath><clipPath id="clip9"><path d="M374.95 350.663 435.53 406.261 393.823 451.705 333.243 396.106Z" fill-rule="evenodd" clip-rule="evenodd"/></clipPath><clipPath id="clip10"><path d="M374.95 350.663 435.53 406.261 393.823 451.705 333.243 396.106Z" fill-rule="evenodd" clip-rule="evenodd"/></clipPath><clipPath id="clip11"><path d="M374.95 350.663 435.53 406.261 393.823 451.705 333.243 396.106Z" fill-rule="evenodd" clip-rule="evenodd"/></clipPath><clipPath id="clip12"><path d="M617.481 439.214 567.576 296.17 620.816 277.595 670.722 420.639Z" fill-rule="evenodd" clip-rule="evenodd"/></clipPath><clipPath id="clip13"><path d="M617.481 439.214 567.576 296.17 620.816 277.595 670.722 420.639Z" fill-rule="evenodd" clip-rule="evenodd"/></clipPath><clipPath id="clip14"><path d="M617.481 439.214 567.576 296.17 620.816 277.595 670.722 420.639Z" fill-rule="evenodd" clip-rule="evenodd"/></clipPath><clipPath id="clip15"><path d="M616.3 277.595 566.394 420.639 619.634 439.214 669.54 296.17Z" fill-rule="evenodd" clip-rule="evenodd"/></clipPath><clipPath id="clip16"><path d="M616.3 277.595 566.394 420.639 619.634 439.214 669.54 296.17Z" fill-rule="evenodd" clip-rule="evenodd"/></clipPath><clipPath id="clip17"><path d="M616.3 277.595 566.394 420.639 619.634 439.214 669.54 296.17Z" fill-rule="evenodd" clip-rule="evenodd"/></clipPath></defs><g transform="translate(-33 -168)"><path d="M212.5 195.147C212.5 180.983 223.983 169.5 238.147 169.5L1051.85 169.5C1066.02 169.5 1077.5 180.983 1077.5 195.147L1077.5 520.853C1077.5 535.017 1066.02 546.5 1051.85 546.5L238.147 546.5C223.983 546.5 212.5 535.017 212.5 520.853Z" stroke="#C00000" stroke-width="3" stroke-miterlimit="8" fill="#FFFFCC" fill-rule="evenodd" fill-opacity="0.211765"/><path d="M400.5 228.5 845.5 228.5 845.5 489.5 400.5 489.5Z" stroke="#172C51" stroke-width="1.33333" stroke-linecap="square" stroke-miterlimit="8" stroke-dasharray="4 1.33333" fill="none"/><g clip-path="url(#clip0)"><g clip-path="url(#clip1)"><g clip-path="url(#clip2)"><path d="M63 93.338C61.9698 93.3384 61.0614 92.6632 60.7647 91.6767L48.454 50.6473 37.0813 73.388C36.51 74.5373 35.1151 75.0059 33.9658 74.4346 33.5976 74.2516 33.2846 73.9742 33.0587 73.6307L24.416 60.6713 2.33333 60.6713C1.04467 60.6713-6.15484e-08 59.6267-1.08851e-08 58.338 3.97783e-08 57.0493 1.04467 56.0047 2.33333 56.0047L25.6667 56.0047C26.446 56.0047 27.174 56.392 27.608 57.0453L34.7107 67.6993 46.9093 43.2973C47.493 42.1455 48.8999 41.685 50.0517 42.2687 50.619 42.5562 51.0447 43.0624 51.2307 43.6707L62.5473 81.3773 74.7133 20.5473C74.929 19.4133 75.95 18.6136 77.1027 18.676 78.2512 18.728 79.1923 19.6058 79.324 20.748L83.622 59.4207 89.9593 56.252C90.2836 56.0887 90.6416 56.004 91.0047 56.0047L109.671 56.0047C110.96 56.0047 112.005 57.0493 112.005 58.338 112.005 59.6267 110.96 60.6713 109.671 60.6713L91.5553 60.6713 82.712 65.0907C81.5639 65.6702 80.1634 65.2094 79.5838 64.0613 79.4575 63.811 79.3774 63.54 79.3473 63.2613L76.3373 36.1993 65.2867 91.462C65.0788 92.5138 64.1785 93.2869 63.1073 93.3333L63 93.338Z" transform="matrix(1.00893 0 0 1 50 308)"/></g></g></g><path d="M249 249 361 249 361 467 249 467Z" stroke="#ED7D31" stroke-width="6" stroke-miterlimit="8" fill="none"/><text font-family="Times New Roman,Times New Roman_MSFontService,sans-serif" font-weight="400" font-size="27" transform="translate(263.494 364)">iEmbed</text><text font-family="Times New Roman,Times New Roman_MSFontService,sans-serif" font-style="italic" font-weight="400" font-size="16" transform="translate(282.714 405)">(</text><text font-family="Times New Roman,Times New Roman_MSFontService,sans-serif" font-style="italic" font-weight="400" font-size="16" transform="translate(287.714 405)">bs</text><text font-family="Times New Roman,Times New Roman_MSFontService,sans-serif" font-style="italic" font-weight="400" font-size="16" transform="translate(301.714 405)">, </text><text font-family="Times New Roman,Times New Roman_MSFontService,sans-serif" font-style="italic" font-weight="400" font-size="16" transform="translate(309.714 405)">var</text><text font-family="Times New Roman,Times New Roman_MSFontService,sans-serif" font-style="italic" font-weight="400" font-size="16" transform="translate(331.714 405)">, </text><text font-family="Times New Roman,Times New Roman_MSFontService,sans-serif" font-style="italic" font-weight="400" font-size="16" transform="translate(339.714 405)">d</text><text font-family="Times New Roman,Times New Roman_MSFontService,sans-serif" font-style="italic" font-weight="400" font-size="16" transform="translate(347.714 405)">)</text><path d="M420 248 593 248 593 331 420 331Z" stroke="#0070C0" stroke-width="6" stroke-miterlimit="8" fill="none"/><text font-family="Times New Roman,Times New Roman_MSFontService,sans-serif" font-weight="400" font-size="27" transform="translate(436.943 299)">iTransformer</text><path d="M421 384 593 384 593 466 421 466Z" stroke="#0070C0" stroke-width="6" stroke-miterlimit="8" fill="none"/><text font-family="Times New Roman,Times New Roman_MSFontService,sans-serif" font-weight="400" font-size="27" transform="translate(435.437 435)">iFlashFormer</text><path d="M646 248 818 248 818 331 646 331Z" stroke="#00B050" stroke-width="6" stroke-miterlimit="8" fill="none"/><text font-family="Times New Roman,Times New Roman_MSFontService,sans-serif" font-weight="400" font-size="27" transform="translate(664.729 283)">Temperature</text><text font-family="Times New Roman,Times New Roman_MSFontService,sans-serif" font-weight="400" font-size="27" transform="translate(706.63 315)">Gate</text><path d="M646 384 818 384 818 466 646 466Z" stroke="#00B050" stroke-width="6" stroke-miterlimit="8" fill="none"/><text font-family="Times New Roman,Times New Roman_MSFontService,sans-serif" font-weight="400" font-size="27" transform="translate(702.75 419)">Wind</text><text font-family="Times New Roman,Times New Roman_MSFontService,sans-serif" font-weight="400" font-size="27" transform="translate(706.63 451)">Gat</text><text font-family="Times New Roman,Times New Roman_MSFontService,sans-serif" font-weight="400" font-size="27" transform="translate(745.13 451)">e</text><path d="M874 248 1046 248 1046 331 874 331Z" stroke="#7030A0" stroke-width="6" stroke-miterlimit="8" fill="none"/><text font-family="Times New Roman,Times New Roman_MSFontService,sans-serif" font-weight="400" font-size="27" transform="translate(893.105 283)">Temperature</text><text font-family="Times New Roman,Times New Roman_MSFontService,sans-serif" font-weight="400" font-size="27" transform="translate(915.005 315)">Decoder</text><path d="M874 384 1046 384 1046 466 874 466Z" stroke="#7030A0" stroke-width="6" stroke-miterlimit="8" fill="none"/><text font-family="Times New Roman,Times New Roman_MSFontService,sans-serif" font-weight="400" font-size="27" transform="translate(931.128 419)">Wind</text><text font-family="Times New Roman,Times New Roman_MSFontService,sans-serif" font-weight="400" font-size="27" transform="translate(915.008 451)">Decoder</text><g clip-path="url(#clip3)"><g clip-path="url(#clip4)"><g clip-path="url(#clip5)"><path d="M63 93.338C61.9698 93.3384 61.0614 92.6632 60.7647 91.6767L48.454 50.6473 37.0813 73.388C36.51 74.5373 35.1151 75.0059 33.9658 74.4346 33.5976 74.2516 33.2846 73.9742 33.0587 73.6307L24.416 60.6713 2.33333 60.6713C1.04467 60.6713-6.15484e-08 59.6267-1.08851e-08 58.338 3.97783e-08 57.0493 1.04467 56.0047 2.33333 56.0047L25.6667 56.0047C26.446 56.0047 27.174 56.392 27.608 57.0453L34.7107 67.6993 46.9093 43.2973C47.493 42.1455 48.8999 41.685 50.0517 42.2687 50.619 42.5562 51.0447 43.0624 51.2307 43.6707L62.5473 81.3773 74.7133 20.5473C74.929 19.4133 75.95 18.6136 77.1027 18.676 78.2512 18.728 79.1923 19.6058 79.324 20.748L83.622 59.4207 89.9593 56.252C90.2836 56.0887 90.6416 56.004 91.0047 56.0047L109.671 56.0047C110.96 56.0047 112.005 57.0493 112.005 58.338 112.005 59.6267 110.96 60.6713 109.671 60.6713L91.5553 60.6713 82.712 65.0907C81.5639 65.6702 80.1634 65.2094 79.5838 64.0613 79.4575 63.811 79.3774 63.54 79.3473 63.2613L76.3373 36.1993 65.2867 91.462C65.0788 92.5138 64.1785 93.2869 63.1073 93.3333L63 93.338Z" transform="matrix(1 0 0 1.00893 1110 233)"/></g></g></g><g><g><g><path d="M1173 462.338C1171.97 462.338 1171.06 461.663 1170.76 460.677L1158.45 419.647 1147.08 442.388C1146.51 443.537 1145.12 444.006 1143.97 443.435 1143.6 443.252 1143.28 442.974 1143.06 442.631L1134.42 429.671 1112.33 429.671C1111.04 429.671 1110 428.627 1110 427.338 1110 426.049 1111.04 425.005 1112.33 425.005L1135.67 425.005C1136.45 425.005 1137.17 425.392 1137.61 426.045L1144.71 436.699 1156.91 412.297C1157.49 411.146 1158.9 410.685 1160.05 411.269 1160.62 411.556 1161.04 412.062 1161.23 412.671L1172.55 450.377 1184.71 389.547C1184.93 388.413 1185.95 387.614 1187.1 387.676 1188.25 387.728 1189.19 388.606 1189.32 389.748L1193.62 428.421 1199.96 425.252C1200.28 425.089 1200.64 425.004 1201 425.005L1219.67 425.005C1220.96 425.005 1222 426.049 1222 427.338 1222 428.627 1220.96 429.671 1219.67 429.671L1201.56 429.671 1192.71 434.091C1191.56 434.67 1190.16 434.209 1189.58 433.061 1189.46 432.811 1189.38 432.54 1189.35 432.261L1186.34 405.199 1175.29 460.462C1175.08 461.514 1174.18 462.287 1173.11 462.333L1173 462.338Z"/></g></g></g><g clip-path="url(#clip6)"><g clip-path="url(#clip7)"><g clip-path="url(#clip8)"><path d="M59.111 30.8405C59.3038 30.8405 43.6907 15.4203 43.6907 15.4203L43.6907 25.0579C33.4748 29.684 2.57004 25.0579 2.57004 25.0579 2.57004 25.0579 24.4797 41.8275 43.6907 39.8357L43.6907 46.2608 59.111 30.8405Z" fill="#7F7F7F" transform="matrix(0.98215 -0.901387 -0.676166 -0.73675 376.276 364.147)"/></g></g></g><g clip-path="url(#clip9)"><g clip-path="url(#clip10)"><g clip-path="url(#clip11)"><path d="M59.111 30.8405C59.3038 30.8405 43.6907 15.4203 43.6907 15.4203L43.6907 25.0579C33.4748 29.684 2.57004 25.0579 2.57004 25.0579 2.57004 25.0579 24.4797 41.8275 43.6907 39.8357L43.6907 46.2608 59.111 30.8405Z" fill="#7F7F7F" transform="matrix(0.98215 0.901387 -0.676166 0.73675 374.95 350.663)"/></g></g></g><path d="M16.0417 20.625 16.0417 13.75 2.29167 27.5C2.11979 27.5 16.0417 41.25 16.0417 41.25L16.0417 34.375 52.7083 27.5 16.0417 20.625Z" fill="#7F7F7F" transform="matrix(-1 1.22465e-16 -1.24691e-16 -1.01818 644 320)"/><path d="M629.667 432 629.667 439 643.667 425C643.842 425 629.667 411 629.667 411L629.667 418 592.333 425 629.667 432Z" fill="#7F7F7F"/><g clip-path="url(#clip12)"><g clip-path="url(#clip13)"><g clip-path="url(#clip14)"><path d="M16.4464 21.1454 16.4464 14.0969 2.34949 28.1939C2.17328 28.1939 16.4464 42.2908 16.4464 42.2908L16.4464 35.2423 54.0382 28.1939 16.4464 21.1454Z" fill="#7F7F7F" transform="matrix(-0.885048 -2.53678 0.944186 -0.329414 617.481 439.214)"/></g></g></g><g clip-path="url(#clip15)"><g clip-path="url(#clip16)"><g clip-path="url(#clip17)"><path d="M16.4464 21.1454 16.4464 14.0969 2.34949 28.1939C2.17328 28.1939 16.4464 42.2908 16.4464 42.2908L16.4464 35.2423 54.0382 28.1939 16.4464 21.1454Z" fill="#7F7F7F" transform="matrix(-0.885048 2.53678 0.944186 0.329414 616.3 277.595)"/></g></g></g><path d="M856.958 297.375 856.958 304.25 870.708 290.5C870.88 290.5 856.958 276.75 856.958 276.75L856.958 283.625 820.292 290.5 856.958 297.375Z" fill="#7F7F7F"/><path d="M856.958 436.375 856.958 443.25 870.708 429.5C870.88 429.5 856.958 415.75 856.958 415.75L856.958 422.625 820.292 429.5 856.958 436.375Z" fill="#7F7F7F"/><path d="M16.0417 20.625 16.0417 13.75 2.29167 27.5C2.11979 27.5 16.0417 41.25 16.0417 41.25L16.0417 34.375 52.7083 27.5 16.0417 20.625Z" fill="#7F7F7F" transform="matrix(-1 1.22465e-16 -1.24691e-16 -1.01818 1102 320)"/><path d="M1086.67 436 1086.67 443 1100.67 429C1100.84 429 1086.67 415 1086.67 415L1086.67 422 1049.33 429 1086.67 436Z" fill="#7F7F7F"/><path d="M302 248.371 302 206.667 734.889 206.667 734.889 233 728.889 233 728.889 209.667 731.889 212.667 305 212.667 308 209.667 308 248.371ZM740.889 230 731.889 248 722.889 230Z" fill="#7F7F7F"/><path d="M308 466.371 308 508.705 305 505.705 731.889 505.705 728.889 508.705 728.889 481 734.889 481 734.889 511.705 302 511.705 302 466.371ZM722.889 484 731.889 466 740.889 484Z" fill="#7F7F7F"/><path d="M16.0417 20.625 16.0417 13.75 2.29167 27.5C2.11979 27.5 16.0417 41.25 16.0417 41.25L16.0417 34.375 52.7083 27.5 16.0417 20.625Z" fill="#7F7F7F" transform="matrix(-1 1.22465e-16 -1.24691e-16 -1.01818 232 392)"/><path d="M37.5001 418.5 184.5 418.5 184.5 515.5 37.5001 515.5Z" stroke="#000000" stroke-linejoin="round" stroke-miterlimit="10" stroke-dasharray="1 1" fill="none"/><text font-family="Times New Roman,Times New Roman_MSFontService,sans-serif" font-style="italic" font-weight="400" font-size="24" transform="translate(59.0935 446)">Historical </text><text font-family="Times New Roman,Times New Roman_MSFontService,sans-serif" font-style="italic" font-weight="400" font-size="24" transform="translate(47.7602 475)">Multivariate </text><text font-family="Times New Roman,Times New Roman_MSFontService,sans-serif" font-style="italic" font-weight="400" font-size="24" transform="translate(86.7602 504)">Data</text><path d="M789.5 498.5 969.5 498.5 969.5 537.5 789.5 537.5Z" stroke="#000000" stroke-linejoin="round" stroke-miterlimit="10" stroke-dasharray="1 1" fill="none"/><text font-family="Times New Roman,Times New Roman_MSFontService,sans-serif" font-style="italic" font-weight="400" font-size="24" transform="translate(799.804 526)">MMoE</text><text font-family="Times New Roman,Times New Roman_MSFontService,sans-serif" font-style="italic" font-weight="400" font-size="24" transform="translate(872.471 526)">structure</text><path d="M1100.5 172.5 1242.5 172.5 1242.5 240.5 1100.5 240.5Z" stroke="#000000" stroke-linejoin="round" stroke-miterlimit="10" stroke-dasharray="1 1" fill="none"/><text font-family="Times New Roman,Times New Roman_MSFontService,sans-serif" font-style="italic" font-weight="400" font-size="24" transform="translate(1110.5 200)">Temperature</text><text font-family="Times New Roman,Times New Roman_MSFontService,sans-serif" font-style="italic" font-weight="400" font-size="24" transform="translate(1113.4 229)">Forecasting</text><path d="M1102.5 473.5 1237.5 473.5 1237.5 541.5 1102.5 541.5Z" stroke="#000000" stroke-linejoin="round" stroke-miterlimit="10" stroke-dasharray="1 1" fill="none"/><text font-family="Times New Roman,Times New Roman_MSFontService,sans-serif" font-style="italic" font-weight="400" font-size="24" transform="translate(1144.84 501)">Wind</text><text font-family="Times New Roman,Times New Roman_MSFontService,sans-serif" font-style="italic" font-weight="400" font-size="24" transform="translate(1111.96 530)">Forecasting</text><path d="M264 400 274.622 400 274.622 402 264 402ZM273.289 397 281.289 401 273.288 405Z"/></g></svg>