<svg width="9" height="9" xmlns="http://www.w3.org/2000/svg" xmlns:xlink="http://www.w3.org/1999/xlink" xml:space="preserve" overflow="hidden"><g transform="translate(-258 -685)"><path d="M258.75 686.875 258.75 692.125 266.25 692.125 266.25 686.875 258.75 686.875ZM262.631 690.147C262.556 690.222 262.444 690.222 262.369 690.147L259.594 687.438 265.416 687.438 262.631 690.147ZM261.141 689.472 259.312 691.309 259.312 687.681 261.141 689.472ZM261.413 689.734 262.116 690.419C262.228 690.522 262.369 690.578 262.509 690.578 262.65 690.578 262.791 690.522 262.903 690.419L263.606 689.734 265.425 691.562 259.584 691.562 261.413 689.734ZM263.859 689.472 265.688 687.691 265.688 691.3 263.859 689.472Z"/></g></svg>